<svg width="28" height="28" viewBox="0 0 28 28" fill="none" xmlns="http://www.w3.org/2000/svg">
<path fill-rule="evenodd" clip-rule="evenodd" d="M19.752 8.16668C19.7891 8.08399 19.8065 7.99388 19.8028 7.90339H19.8333C19.7029 4.79024 17.1324 2.33334 14.0058 2.33334C10.8792 2.33334 8.30868 4.79024 8.1782 7.90339C8.16282 7.99048 8.16282 8.07958 8.1782 8.16668H8.087C6.59192 8.16668 4.99374 9.15364 4.52975 11.8068L3.62239 19.0339C2.88001 24.3401 5.61239 25.6667 9.17995 25.6667H18.8516C22.4088 25.6667 25.0587 23.7458 24.3988 19.0339L23.5018 11.8068C22.9553 9.22793 21.4086 8.16668 19.9342 8.16668H19.752ZM18.0754 8.16668C18.0429 8.08261 18.0257 7.99346 18.0246 7.90339C18.0246 5.66631 16.2048 3.85279 13.96 3.85279C11.7152 3.85279 9.89548 5.66631 9.89548 7.90339C9.91086 7.99048 9.91086 8.07958 9.89548 8.16668H18.0754ZM10.6132 14.1733C10.0437 14.1733 9.58208 13.6982 9.58208 13.1121C9.58208 12.526 10.0437 12.0508 10.6132 12.0508C11.1826 12.0508 11.6443 12.526 11.6443 13.1121C11.6443 13.6982 11.1826 14.1733 10.6132 14.1733ZM16.3357 13.1121C16.3357 13.6982 16.7973 14.1733 17.3668 14.1733C17.9362 14.1733 18.3979 13.6982 18.3979 13.1121C18.3979 12.526 17.9362 12.0508 17.3668 12.0508C16.7973 12.0508 16.3357 12.526 16.3357 13.1121Z" fill="#FFB0B5"/>
</svg>
