<svg width="28" height="28" viewBox="0 0 28 28" fill="none" xmlns="http://www.w3.org/2000/svg">
<path fill-rule="evenodd" clip-rule="evenodd" d="M18.4914 2.91748C19.2276 2.91748 19.9626 3.02132 20.6614 3.25582C24.9676 4.65582 26.5193 9.38082 25.2231 13.5108C24.4881 15.6213 23.2864 17.5475 21.7126 19.1213C19.4598 21.303 16.9876 23.2396 14.3264 24.908L14.0348 25.0842L13.7314 24.8963C11.0609 23.2396 8.57477 21.303 6.30094 19.1096C4.7376 17.5358 3.53477 15.6213 2.7881 13.5108C1.46977 9.38082 3.02144 4.65582 7.37427 3.23132C7.7126 3.11465 8.06144 3.03298 8.41144 2.98748H8.55144C8.87927 2.93965 9.20477 2.91748 9.53144 2.91748H9.65977C10.3948 2.93965 11.1064 3.06798 11.7959 3.30248H11.8648C11.9114 3.32465 11.9464 3.34915 11.9698 3.37132C12.2276 3.45415 12.4714 3.54748 12.7048 3.67582L13.1481 3.87415C13.2552 3.93128 13.3755 4.01859 13.4794 4.09403C13.5452 4.14184 13.6045 4.18488 13.6498 4.21248C13.6688 4.22372 13.6882 4.23501 13.7077 4.2464C13.8077 4.30479 13.9119 4.36562 13.9998 4.43298C15.2959 3.44248 16.8698 2.90582 18.4914 2.91748ZM21.5948 11.3175C22.0731 11.3047 22.4814 10.9208 22.5164 10.4296V10.2908C22.5514 8.65632 21.5609 7.17582 20.0548 6.60415C19.5764 6.43965 19.0514 6.69748 18.8764 7.18748C18.7131 7.67748 18.9698 8.21415 19.4598 8.38798C20.2076 8.66798 20.7081 9.40415 20.7081 10.2196V10.2558C20.6859 10.523 20.7664 10.7808 20.9298 10.9791C21.0931 11.1775 21.3381 11.293 21.5948 11.3175Z" fill="#FFB0B5"/>
</svg>
