<svg width="26" height="26" viewBox="0 0 26 26" fill="none" xmlns="http://www.w3.org/2000/svg">
<path fill-rule="evenodd" clip-rule="evenodd" d="M7.94105 2.16678H18.0486C21.7319 2.16678 23.8336 4.24678 23.8336 7.94094V18.0593C23.8336 21.7318 21.7427 23.8334 18.0594 23.8334H7.94105C4.24689 23.8334 2.16689 21.7318 2.16689 18.0593V7.94094C2.16689 4.24678 4.24689 2.16678 7.94105 2.16678ZM13.8886 13.8993H16.9652C17.4636 13.8884 17.8644 13.4876 17.8644 12.9893C17.8644 12.4909 17.4636 12.0901 16.9652 12.0901H13.8886V9.03511C13.8886 8.53678 13.4877 8.13595 12.9894 8.13595C12.4911 8.13595 12.0902 8.53678 12.0902 9.03511V12.0901H9.02439C8.78605 12.0901 8.55855 12.1876 8.38522 12.3501C8.22272 12.5234 8.12522 12.7499 8.12522 12.9893C8.12522 13.4876 8.52605 13.8884 9.02439 13.8993H12.0902V16.9651C12.0902 17.4634 12.4911 17.8643 12.9894 17.8643C13.4877 17.8643 13.8886 17.4634 13.8886 16.9651V13.8993Z" fill="#C20C17"/>
<rect x="19.9999" y="22.5" width="13" height="8.6" transform="rotate(-180 19.9999 22.5)" fill="#C20C17"/>
<rect x="6.99989" y="3" width="13" height="9.1" fill="#C20C17"/>
</svg>
