<svg width="26" height="26" viewBox="0 0 26 26" fill="none" xmlns="http://www.w3.org/2000/svg">
<path d="M18.0485 2.16678H7.94104C4.24687 2.16678 2.16687 4.24678 2.16687 7.94094V18.0593C2.16687 21.7318 4.24687 23.8334 7.94104 23.8334H18.0594C21.7427 23.8334 23.8335 21.7318 23.8335 18.0593V7.94094C23.8335 4.24678 21.7319 2.16678 18.0485 2.16678Z" fill="#C20C17"/>
<path d="M16.9654 13.8993H13.8887V16.9651C13.8887 17.4635 13.4879 17.8643 12.9895 17.8643C12.4912 17.8643 12.0904 17.4635 12.0904 16.9651V13.8993H9.02453C8.5262 13.8885 8.12537 13.4876 8.12537 12.9893C8.12537 12.7499 8.22287 12.5235 8.38537 12.3501C8.5587 12.1876 8.7862 12.0901 9.02453 12.0901H12.0904V9.03512C12.0904 8.53679 12.4912 8.13596 12.9895 8.13596C13.4879 8.13596 13.8887 8.53679 13.8887 9.03512V12.0901H16.9654C17.4637 12.0901 17.8645 12.491 17.8645 12.9893C17.8645 13.4876 17.4637 13.8885 16.9654 13.8993Z" fill="white"/>
</svg>
